<svg xmlns="http://www.w3.org/2000/svg" viewBox="0 0 200 180" fill="none">
  <defs>
    <!-- Main gold gradient -->
    <linearGradient id="gold" x1="100" y1="20" x2="100" y2="160" gradientUnits="userSpaceOnUse">
      <stop offset="0%" stop-color="#F5E070"/>
      <stop offset="35%" stop-color="#D4A84B"/>
      <stop offset="65%" stop-color="#B8860B"/>
      <stop offset="100%" stop-color="#8B6914"/>
    </linearGradient>
    <!-- Highlight gradient for raised surfaces -->
    <linearGradient id="goldHigh" x1="0" y1="0" x2="0" y2="1">
      <stop offset="0%" stop-color="#F7EB90"/>
      <stop offset="100%" stop-color="#C9941A"/>
    </linearGradient>
    <!-- Dark face gradient -->
    <linearGradient id="goldDark" x1="0" y1="0" x2="1" y2="1">
      <stop offset="0%" stop-color="#C9A84C"/>
      <stop offset="100%" stop-color="#7A5C0A"/>
    </linearGradient>
    <!-- Crystal center gradient -->
    <linearGradient id="crystal" x1="100" y1="60" x2="100" y2="130" gradientUnits="userSpaceOnUse">
      <stop offset="0%" stop-color="#F9F0A0"/>
      <stop offset="40%" stop-color="#E8C84A"/>
      <stop offset="100%" stop-color="#9A7010"/>
    </linearGradient>
    <!-- Glow filter -->
    <filter id="glow" x="-20%" y="-20%" width="140%" height="140%">
      <feGaussianBlur stdDeviation="3" result="blur"/>
      <feMerge><feMergeNode in="blur"/><feMergeNode in="SourceGraphic"/></feMerge>
    </filter>
    <filter id="softglow" x="-30%" y="-30%" width="160%" height="160%">
      <feGaussianBlur stdDeviation="5" result="blur"/>
      <feColorMatrix in="blur" type="matrix" values="1 0.8 0 0 0  0.8 0.6 0 0 0  0 0 0 0 0  0 0 0 0.6 0" result="glow"/>
      <feMerge><feMergeNode in="glow"/><feMergeNode in="SourceGraphic"/></feMerge>
    </filter>
  </defs>

  <!-- ===== OUTER CROWN FRAME ===== -->
  <!-- Left outer wing -->
  <path d="M 18 148 L 32 110 L 52 95 L 62 105 L 48 118 L 40 148 Z"
        fill="url(#gold)" opacity="0.9"/>
  <!-- Left outer wing highlight edge -->
  <path d="M 18 148 L 32 110 L 52 95"
        stroke="#F0D060" stroke-width="1.5" fill="none" opacity="0.7"/>

  <!-- Right outer wing -->
  <path d="M 182 148 L 168 110 L 148 95 L 138 105 L 152 118 L 160 148 Z"
        fill="url(#gold)" opacity="0.9"/>
  <path d="M 182 148 L 168 110 L 148 95"
        stroke="#F0D060" stroke-width="1.5" fill="none" opacity="0.7"/>

  <!-- ===== INNER CROWN BASE ===== -->
  <!-- Main crown body base -->
  <path d="M 40 148 L 48 118 L 62 105 L 72 115 L 85 100 L 100 155 L 115 100 L 128 115 L 138 105 L 152 118 L 160 148 Z"
        fill="url(#gold)"/>
  <!-- Base bottom flat bar -->
  <path d="M 38 148 L 162 148 L 158 155 L 42 155 Z"
        fill="url(#goldDark)" opacity="0.8"/>
  <!-- Base highlight line -->
  <path d="M 42 148 L 158 148"
        stroke="#F0D060" stroke-width="1" opacity="0.6"/>

  <!-- ===== LEFT SPIKE ===== -->
  <!-- Left spike body -->
  <path d="M 62 105 L 72 115 L 68 82 L 55 58 L 50 78 L 58 88 Z"
        fill="url(#gold)"/>
  <!-- Left spike highlight (left face) -->
  <path d="M 55 58 L 50 78 L 58 88 L 62 105"
        fill="#E8C84A" opacity="0.5"/>
  <!-- Left spike dark face -->
  <path d="M 55 58 L 68 82 L 72 115 L 62 105"
        fill="#8B6510" opacity="0.4"/>
  <!-- Left spike tip highlight -->
  <path d="M 55 58 L 52 65 L 57 70 Z"
        fill="#F7EB90" opacity="0.8"/>

  <!-- ===== RIGHT SPIKE ===== -->
  <path d="M 138 105 L 128 115 L 132 82 L 145 58 L 150 78 L 142 88 Z"
        fill="url(#gold)"/>
  <path d="M 145 58 L 150 78 L 142 88 L 138 105"
        fill="#E8C84A" opacity="0.5"/>
  <path d="M 145 58 L 132 82 L 128 115 L 138 105"
        fill="#8B6510" opacity="0.4"/>
  <path d="M 145 58 L 148 65 L 143 70 Z"
        fill="#F7EB90" opacity="0.8"/>

  <!-- ===== CENTER FLAME SPIRE ===== -->
  <!-- Center flame - back layer -->
  <path d="M 100 18 L 88 52 L 100 65 L 112 52 Z"
        fill="#C9A030" opacity="0.6"/>
  <!-- Center flame - front main -->
  <path d="M 100 18 L 91 48 L 100 60 L 109 48 Z"
        fill="url(#crystal)" filter="url(#softglow)"/>
  <!-- Center flame highlight -->
  <path d="M 100 18 L 94 42 L 100 52 Z"
        fill="#F9F5C0" opacity="0.7"/>
  <!-- Center flame right dark face -->
  <path d="M 100 18 L 109 48 L 100 60 Z"
        fill="#8B6010" opacity="0.5"/>

  <!-- ===== LEFT SMALL FLAME ===== -->
  <path d="M 68 82 L 62 58 L 74 70 L 78 86 Z"
        fill="url(#gold)" opacity="0.85"/>
  <path d="M 62 58 L 68 65 L 74 70 Z"
        fill="#F7EB90" opacity="0.7"/>
  <path d="M 68 82 L 74 70 L 78 86 Z"
        fill="#8B6510" opacity="0.5"/>

  <!-- ===== RIGHT SMALL FLAME ===== -->
  <path d="M 132 82 L 138 58 L 126 70 L 122 86 Z"
        fill="url(#gold)" opacity="0.85"/>
  <path d="M 138 58 L 132 65 L 126 70 Z"
        fill="#F7EB90" opacity="0.7"/>
  <path d="M 132 82 L 126 70 L 122 86 Z"
        fill="#8B6510" opacity="0.5"/>

  <!-- ===== CENTER DIAMOND JEWEL ===== -->
  <!-- Diamond outer glow -->
  <ellipse cx="100" cy="108" rx="14" ry="14"
           fill="#E8C84A" opacity="0.15" filter="url(#glow)"/>
  <!-- Diamond body -->
  <path d="M 100 94 L 114 108 L 100 122 L 86 108 Z"
        fill="url(#crystal)" filter="url(#glow)"/>
  <!-- Diamond top facet -->
  <path d="M 100 94 L 114 108 L 100 104 Z"
        fill="#F9F5C0" opacity="0.6"/>
  <!-- Diamond left facet -->
  <path d="M 100 94 L 86 108 L 100 104 Z"
        fill="#E8D060" opacity="0.5"/>
  <!-- Diamond bottom facet -->
  <path d="M 86 108 L 100 122 L 100 112 Z"
        fill="#9A7010" opacity="0.6"/>
  <!-- Diamond right bottom -->
  <path d="M 114 108 L 100 122 L 100 112 Z"
        fill="#7A5808" opacity="0.5"/>
  <!-- Diamond inner sparkle -->
  <path d="M 100 98 L 102 106 L 100 114 L 98 106 Z"
        fill="#FFFCE0" opacity="0.5"/>

  <!-- ===== CROWN DETAIL LINES ===== -->
  <!-- Inner V-shape separators -->
  <path d="M 72 115 L 85 100" stroke="#D4A830" stroke-width="1" opacity="0.5" fill="none"/>
  <path d="M 128 115 L 115 100" stroke="#D4A830" stroke-width="1" opacity="0.5" fill="none"/>

  <!-- ===== SUBTLE BASE SHADOW ===== -->
  <ellipse cx="100" cy="158" rx="60" ry="5"
           fill="#000" opacity="0.25"/>
</svg>
